<svg width="32" height="32" viewBox="0 0 32 32" fill="none" xmlns="http://www.w3.org/2000/svg">
<rect y="3.19971" width="32" height="3.2" fill="black"/>
<rect y="14.3999" width="32" height="3.2" fill="black"/>
<rect y="26" width="32" height="3" fill="black"/>
<path d="M11.3788 4.8C11.3788 6.7006 9.93929 8.1 8.3333 8.1C6.7273 8.1 5.28784 6.7006 5.28784 4.8C5.28784 2.8994 6.7273 1.5 8.3333 1.5C9.93929 1.5 11.3788 2.8994 11.3788 4.8Z" fill="white" stroke="black" stroke-width="3"/>
<path d="M11.3788 27.1999C11.3788 29.1005 9.93929 30.4999 8.3333 30.4999C6.7273 30.4999 5.28784 29.1005 5.28784 27.1999C5.28784 25.2993 6.7273 23.8999 8.3333 23.8999C9.93929 23.8999 11.3788 25.2993 11.3788 27.1999Z" fill="white" stroke="black" stroke-width="3"/>
<path d="M27.4698 15.9997C27.4698 17.9003 26.0304 19.2997 24.4244 19.2997C22.8184 19.2997 21.3789 17.9003 21.3789 15.9997C21.3789 14.0991 22.8184 12.6997 24.4244 12.6997C26.0304 12.6997 27.4698 14.0991 27.4698 15.9997Z" fill="white" stroke="black" stroke-width="3"/>
</svg>
