<svg width="110" height="50" viewBox="0 0 110 50" fill="none" xmlns="http://www.w3.org/2000/svg">
<path d="M15.0381 27.6906L24.7793 21.1067L24.726 49.0897L15.085 49.0879L15.0381 27.6906Z" fill="white"/>
<path d="M39.6877 27.1548C40.6536 26.0328 41.7053 25.2228 42.8434 24.7239C43.9808 24.2257 45.2816 23.9759 46.7471 23.9759C48.3051 23.9759 49.7392 24.2956 51.0481 24.9341C52.3573 25.5735 53.479 26.4614 54.4143 27.5988C55.3495 28.7372 56.0815 30.093 56.6114 31.6663C57.1413 33.2403 57.4064 34.9469 57.4064 36.7853C57.4064 38.5935 57.2032 40.2917 56.7986 41.8813C56.3929 43.4706 55.7468 44.8578 54.8585 46.0421C53.9703 47.2268 52.8249 48.162 51.4225 48.8471C50.02 49.5325 48.3207 49.8756 46.3268 49.8756C44.2699 49.8756 42.6569 49.4782 41.4882 48.6832C40.3196 47.8889 39.4233 46.8994 38.8002 45.7147H38.7066V49.1745H29.9644V15.514H39.6884V27.1548H39.6877ZM45.5315 42.2553C46.061 41.913 46.49 41.4767 46.817 40.9465C47.1441 40.4169 47.3699 39.8091 47.4948 39.1234C47.619 38.4379 47.6816 37.7675 47.6816 37.1131C47.6816 36.4586 47.6117 35.7969 47.4711 35.1264C47.3309 34.4563 47.1044 33.8405 46.7934 33.2796C46.4816 32.7188 46.0606 32.2672 45.5311 31.9238C45.0009 31.5814 44.3464 31.4096 43.5674 31.4096C42.8194 31.4096 42.1883 31.5814 41.674 31.9238C41.1598 32.2669 40.7388 32.7031 40.4118 33.233C40.0847 33.7632 39.8429 34.3551 39.687 35.0095C39.5308 35.6636 39.4532 36.3031 39.4532 36.9262C39.4532 37.5807 39.5155 38.2511 39.6404 38.9365C39.7646 39.6226 39.9911 40.2534 40.3182 40.8299C40.6456 41.4071 41.0662 41.8747 41.5804 42.2324C42.0947 42.5911 42.7564 42.7703 43.5674 42.7703C44.3464 42.7696 45.0009 42.5987 45.5315 42.2553Z" fill="white"/>
<path d="M70.4486 29.6323H70.5422C71.2276 27.7003 72.1785 26.2741 73.3941 25.3546C74.6094 24.4357 76.1678 23.9754 78.0691 23.9754C78.2869 23.9754 78.4971 23.9914 78.7003 24.022C78.9028 24.0533 79.1129 24.085 79.3314 24.1156V33.8397C78.988 33.7778 78.6537 33.7155 78.3263 33.6528C77.9989 33.5909 77.6638 33.5596 77.3211 33.5596C75.3261 33.5596 73.8301 34.0898 72.8329 35.1489C71.8351 36.2087 71.3369 38.0635 71.3369 40.7125V49.1744H61.6128V24.6768H70.4486V29.6323Z" fill="white"/>
<path d="M91.4407 39.1229C91.4407 39.8403 91.5729 40.4947 91.8381 41.0865C92.1025 41.6787 92.4528 42.1853 92.8898 42.6059C93.3257 43.0266 93.8323 43.3536 94.4092 43.5878C94.9857 43.8216 95.6015 43.9381 96.256 43.9381C97.0346 43.9381 97.752 43.7589 98.4065 43.4006C99.0609 43.0425 99.5591 42.505 99.9025 41.7873H109.206C108.769 43.3146 108.091 44.5922 107.172 45.6207C106.253 46.6495 105.177 47.4834 103.946 48.1219C102.715 48.761 101.383 49.2126 99.9492 49.4777C98.5154 49.7422 97.0813 49.875 95.6482 49.875C93.6848 49.875 91.8534 49.6016 90.1548 49.0571C88.4559 48.5123 86.9831 47.7009 85.7369 46.6258C84.4899 45.5504 83.5081 44.2182 82.7917 42.6285C82.0743 41.0392 81.7163 39.2161 81.7163 37.1589C81.7163 35.1649 82.074 33.3487 82.7917 31.7125C83.5085 30.0762 84.4819 28.6897 85.7136 27.5517C86.9442 26.4143 88.4089 25.5341 90.1082 24.9103C91.8064 24.2871 93.6379 23.9754 95.6012 23.9754C97.8759 23.9754 99.9022 24.3341 101.679 25.0508C103.455 25.7679 104.959 26.7803 106.19 28.0896C107.421 29.3984 108.364 30.9881 109.018 32.8582C109.673 34.7283 110 36.8165 110 39.1225H91.4407V39.1229ZM100.277 34.1671C100.277 33.6062 100.16 33.0683 99.9258 32.5541C99.692 32.0399 99.3803 31.5886 98.991 31.1983C98.6009 30.8089 98.1413 30.4972 97.6118 30.2631C97.0816 30.0293 96.5367 29.9127 95.9755 29.9127C94.5104 29.9127 93.3881 30.2947 92.6097 31.058C91.8304 31.8221 91.4411 32.8582 91.4411 34.1671H100.277Z" fill="white"/>
<path d="M9.72407 49.1708H0V15.5103H9.72407V49.1708Z" fill="white"/>
<path d="M25.9961 7.80382L30.2265 10.5312L32.3975 6.97265L37.8878 5.32425L32.8206 5.33715L30.0121 4.7959L27.3388 5.61654L25.9961 7.80382Z" fill="white"/>
<path d="M29.7373 11.4258L14.0008 1.60859L9.83887 0.489746L17.8916 10.8318L21.0511 12.857L12.4627 26.9359L27.2029 15.4856L29.7373 11.4258Z" fill="white"/>
<path d="M45.3589 15.4672H49.2577L50.4079 19.5999L51.6514 15.4672H55.4942V22.2552H53.0539V16.9536L51.4458 22.2552H49.3889L47.7996 16.9536V22.2552H45.3592V15.4672H45.3589Z" fill="white"/>
<path d="M61.4697 15.4658H68.6603V17.13H64.0972V17.9434H67.7904V19.6078H64.0972V20.5055H68.8843V22.2538H61.4697V15.4658Z" fill="white"/>
<path d="M78.5797 15.4567C80.0069 15.4567 81.0841 15.748 81.8102 16.3311C82.5363 16.9142 82.8995 17.7568 82.8995 18.8601C82.8995 19.9634 82.538 20.805 81.815 21.3847C81.0917 21.9643 80.0135 22.2541 78.5801 22.2541H74.2324V15.4567H78.5797ZM76.8592 20.4498H78.1681C78.8166 20.4498 79.2964 20.3266 79.6082 20.0806C79.9199 19.8343 80.0758 19.406 80.0758 18.7951C80.0758 18.1904 79.9213 17.7635 79.613 17.514C79.3044 17.2649 78.8229 17.14 78.1685 17.14H76.8596V20.4498H76.8592Z" fill="white"/>
<path d="M88.5088 15.4658H91.1457V22.2538H88.5088V15.4658Z" fill="white"/>
<path d="M99.037 15.4658H102.375L105.114 22.2538H102.272L102.047 21.5806H99.1588L98.9159 22.2538H96.1016L99.037 15.4658ZM101.459 19.9165L100.645 17.5228L99.7847 19.9165H101.459Z" fill="white"/>
</svg>
