<svg version="1.1" xmlns="http://www.w3.org/2000/svg" xmlns:xlink="http://www.w3.org/1999/xlink" x="0px" y="0px"
	 viewBox="0 0 480 480" style="enable-background:new 0 0 480 480;" xml:space="preserve">
<path style="fill:#9ED9AE;" d="M288,312h80v128h48V251.68c-7.433-4.278-12.827-11.373-14.96-19.68c-0.714-2.606-1.064-5.298-1.04-8
	c0.024,2.702-0.326,5.394-1.04,8c-4.469,17.099-21.953,27.337-39.052,22.868c-11.197-2.927-19.942-11.671-22.868-22.868
	c-0.714-2.606-1.064-5.298-1.04-8c0.024,2.702-0.326,5.394-1.04,8c-4.469,17.099-21.953,27.337-39.052,22.868
	c-11.197-2.927-19.942-11.671-22.868-22.868c-0.714-2.606-1.064-5.298-1.04-8c0.024,2.702-0.326,5.394-1.04,8
	c-4.469,17.099-21.953,27.337-39.052,22.868c-11.197-2.927-19.942-11.671-22.868-22.868c-0.714-2.606-1.064-5.298-1.04-8
	c0.024,2.702-0.326,5.394-1.04,8c-4.469,17.099-21.953,27.337-39.052,22.868c-11.197-2.927-19.942-11.671-22.868-22.868
	c-0.714-2.606-1.064-5.298-1.04-8c0.024,2.702-0.326,5.394-1.04,8c-4.469,17.099-21.953,27.337-39.052,22.868
	C92.711,251.942,83.967,243.197,81.04,232c-0.714-2.606-1.064-5.298-1.04-8c0.024,2.702-0.326,5.394-1.04,8
	c-2.133,8.307-7.527,15.402-14.96,19.68V440h224V312z M240,392H112v-80h128V392z"/>
<path style="fill:#726658;" d="M472,440h-56h-48h-80H64H8v32h464V440z"/>
<path style="fill:#9B8579;" d="M368,88V8H112v80h24h208H368z"/>
<path style="fill:#60E6EB;" d="M152,152h56h64h56h64h24v-32h-72H136H64v32h24H152z"/>
<g>
	<path style="fill:#FF9275;" d="M208,152v72c-0.024,2.702,0.326,5.394,1.04,8c4.469,17.099,21.953,27.337,39.052,22.868
		c11.197-2.927,19.942-11.671,22.868-22.868c0.714-2.606,1.064-5.298,1.04-8v-72H208z"/>
	<path style="fill:#FF9275;" d="M152,152l-8,72c-0.024,2.702,0.326,5.394,1.04,8c4.469,17.099,21.953,27.337,39.052,22.868
		c11.197-2.927,19.942-11.671,22.868-22.868c0.714-2.606,1.064-5.298,1.04-8v-72H152z"/>
	<path style="fill:#FF9275;" d="M88,152l-8,72c-0.024,2.702,0.326,5.394,1.04,8c4.469,17.099,21.953,27.337,39.052,22.868
		c11.197-2.927,19.942-11.671,22.868-22.868c0.714-2.606,1.064-5.298,1.04-8l8-72H88z"/>
	<path style="fill:#FF9275;" d="M78.96,232c0.714-2.606,1.064-5.298,1.04-8l8-72H32l-16,72c0.05,17.673,14.418,31.959,32.091,31.908
		C62.614,255.867,75.288,246.051,78.96,232z"/>
	<path style="fill:#FF9275;" d="M272,152v72c-0.024,2.702,0.326,5.394,1.04,8c4.469,17.099,21.953,27.337,39.052,22.868
		c11.197-2.927,19.942-11.671,22.868-22.868c0.714-2.606,1.064-5.298,1.04-8l-8-72H272z"/>
	<path style="fill:#FF9275;" d="M328,152l8,72c-0.024,2.702,0.326,5.394,1.04,8c4.469,17.099,21.953,27.337,39.052,22.868
		c11.197-2.927,19.942-11.671,22.868-22.868c0.714-2.606,1.064-5.298,1.04-8l-8-72H328z"/>
	<path style="fill:#FF9275;" d="M400,224c-0.024,2.702,0.326,5.394,1.04,8c4.469,17.099,21.953,27.337,39.052,22.869
		C454.142,251.197,463.959,238.523,464,224l-16-72h-56L400,224z"/>
</g>
<path style="fill:#FBB040;" d="M288,312h80v128h-80V312z"/>
<path style="fill:#E6E7E8;" d="M112,312h128v80H112V312z"/>
<g>
	<path style="fill:#353535;" d="M472,432h-48V263.088c2.628,0.579,5.309,0.885,8,0.912c22.08-0.026,39.974-17.92,40-40
		c0-0.584-0.064-1.166-0.192-1.736l-16-72c-0.814-3.66-4.059-6.263-7.808-6.264h-24v-24c0-4.418-3.582-8-8-8h-64V96h16
		c4.418,0,8-3.582,8-8V8c0-4.418-3.582-8-8-8H112c-4.418,0-8,3.582-8,8v80c0,4.418,3.582,8,8,8h16v16H64c-4.418,0-8,3.582-8,8v24H32
		c-3.749,0.001-6.994,2.604-7.808,6.264l-16,72C8.064,222.834,8,223.416,8,224c0.026,22.08,17.92,39.974,40,40
		c2.691-0.027,5.372-0.333,8-0.912V432H8c-4.418,0-8,3.582-8,8v32c0,4.418,3.582,8,8,8h464c4.418,0,8-3.582,8-8v-32
		C480,435.582,476.418,432,472,432z M441.6,160l14.4,64.8c-0.432,12.941-11.051,23.207-24,23.2c-4.218-0.001-8.36-1.125-12-3.256
		c-5.601-3.258-9.654-8.632-11.248-14.912c-0.522-1.899-0.775-3.862-0.752-5.832c0-0.294-0.016-0.588-0.048-0.88L400.936,160
		L441.6,160z M368,304h-80c-4.418,0-8,3.582-8,8v120H72V255.728c3.025-2.233,5.718-4.883,8-7.872
		c13.048,17.673,37.952,21.423,55.625,8.375c3.194-2.358,6.017-5.181,8.375-8.375c13.048,17.673,37.952,21.423,55.625,8.375
		c3.194-2.358,6.017-5.181,8.375-8.375c13.048,17.673,37.952,21.423,55.625,8.375c3.194-2.358,6.017-5.181,8.375-8.375
		c13.048,17.673,37.952,21.423,55.625,8.375c3.194-2.358,6.017-5.181,8.375-8.375c13.055,17.673,37.965,21.417,55.638,8.362
		c3.188-2.355,6.007-5.174,8.362-8.362c2.281,2.982,4.975,5.625,8,7.848V432h-32V312C376,307.582,372.418,304,368,304z M360,320v112
		h-64V320H360z M88,224.416L95.2,160h47.904l-7.016,63.12c-0.046,0.291-0.075,0.585-0.088,0.88c0.019,2.036-0.251,4.064-0.8,6.024
		c-3.379,12.817-16.508,20.468-29.325,17.089c-8.427-2.221-14.987-8.836-17.139-17.281C88.253,228.067,88.006,226.246,88,224.416z
		 M152,224.416L159.2,160H200v64c0.019,2.036-0.251,4.064-0.8,6.024c-3.379,12.817-16.508,20.468-29.325,17.089
		c-8.427-2.221-14.987-8.836-17.139-17.281C152.253,228.067,152.006,226.246,152,224.416z M216,224v-64h48v64
		c0.019,2.036-0.251,4.064-0.8,6.024c-3.379,12.817-16.508,20.468-29.325,17.089c-8.427-2.221-14.987-8.836-17.139-17.281
		C216.219,227.932,215.972,225.969,216,224L216,224z M280,224v-64h40.8l7.2,64.416c-0.021,1.894-0.29,3.776-0.8,5.6
		c-3.379,12.817-16.508,20.468-29.325,17.089c-8.427-2.221-14.987-8.836-17.139-17.281C280.22,227.927,279.972,225.966,280,224
		L280,224z M336.936,160h47.904l7.2,64.416c-0.021,1.894-0.29,3.776-0.8,5.6c-3.379,12.817-16.508,20.468-29.325,17.089
		c-8.427-2.221-14.987-8.836-17.139-17.281c-0.529-1.896-0.791-3.856-0.776-5.824c0-0.294-0.016-0.588-0.048-0.88L336.936,160z
		 M120,80V16h240v64H120z M336,96v16H144V96H336z M72,128h336v16H72V128z M48,248c-12.949,0.007-23.568-10.259-24-23.2L38.4,160
		h40.648l-7.016,63.12c-0.027,0.293-0.037,0.586-0.032,0.88c0.016,2.03-0.254,4.053-0.8,6.008
		c-1.613,6.212-5.647,11.519-11.2,14.736C56.36,246.875,52.218,247.999,48,248z M464,464H16v-16h448V464z"/>
	<path style="fill:#353535;" d="M240,304H112c-4.418,0-8,3.582-8,8v80c0,4.418,3.582,8,8,8h128c4.418,0,8-3.582,8-8v-80
		C248,307.582,244.418,304,240,304z M232,384H120v-64h112V384z"/>
</g>
<g>
</g>
<g>
</g>
<g>
</g>
<g>
</g>
<g>
</g>
<g>
</g>
<g>
</g>
<g>
</g>
<g>
</g>
<g>
</g>
<g>
</g>
<g>
</g>
<g>
</g>
<g>
</g>
<g>
</g>
</svg>
