<svg width="44" height="31" viewBox="0 0 44 31" fill="none" xmlns="http://www.w3.org/2000/svg">
<path d="M42.8959 5.63148C42.3943 3.78383 40.9164 2.32867 39.0399 1.83484C35.6386 0.9375 21.9998 0.9375 21.9998 0.9375C21.9998 0.9375 8.36114 0.9375 4.95977 1.83484C3.08327 2.32875 1.60537 3.78383 1.10376 5.63148C0.192383 8.98047 0.192383 15.9678 0.192383 15.9678C0.192383 15.9678 0.192383 22.9552 1.10376 26.3041C1.60537 28.1518 3.08327 29.5463 4.95977 30.0402C8.36114 30.9375 21.9998 30.9375 21.9998 30.9375C21.9998 30.9375 35.6385 30.9375 39.0399 30.0402C40.9164 29.5463 42.3943 28.1518 42.8959 26.3041C43.8073 22.9552 43.8073 15.9678 43.8073 15.9678C43.8073 15.9678 43.8073 8.98047 42.8959 5.63148ZM17.5392 22.3118V9.62383L28.9385 15.968L17.5392 22.3118Z" fill="#959595"/>
</svg>
