<svg width="32" height="32" viewBox="0 0 32 32" fill="none" xmlns="http://www.w3.org/2000/svg">
<path d="M7.16286 32.0003H0.528571V10.636H7.16286V32.0003ZM3.84214 7.72169C1.72071 7.72169 0 5.96455 0 3.84312C1.51843e-08 2.82412 0.404796 1.84686 1.12534 1.12631C1.84588 0.405773 2.82314 0.000976562 3.84214 0.000976562C4.86114 0.000976562 5.83841 0.405773 6.55895 1.12631C7.27949 1.84686 7.68429 2.82412 7.68429 3.84312C7.68429 5.96455 5.96286 7.72169 3.84214 7.72169ZM31.9929 32.0003H25.3729V21.6003C25.3729 19.1217 25.3229 15.9431 21.9236 15.9431C18.4743 15.9431 17.9457 18.636 17.9457 21.4217V32.0003H11.3186V10.636H17.6814V13.5503H17.7743C18.66 11.8717 20.8236 10.1003 24.0514 10.1003C30.7657 10.1003 32 14.5217 32 20.2645V32.0003H31.9929Z" fill="#959595"/>
</svg>
