<svg width="207" height="207" viewBox="0 0 207 207" fill="none" xmlns="http://www.w3.org/2000/svg">
<path d="M82.6435 149.791L144.626 103.304L82.6435 56.8174V149.791ZM103.304 0C46.2803 0 0 46.2803 0 103.304C0 160.328 46.2803 206.609 103.304 206.609C160.328 206.609 206.609 160.328 206.609 103.304C206.609 46.2803 160.328 0 103.304 0ZM103.304 185.948C57.7471 185.948 20.6609 148.862 20.6609 103.304C20.6609 57.7471 57.7471 20.6609 103.304 20.6609C148.862 20.6609 185.948 57.7471 185.948 103.304C185.948 148.862 148.862 185.948 103.304 185.948Z" fill="white"/>
</svg>
