<svg width="40" height="36" viewBox="0 0 40 36" fill="none" xmlns="http://www.w3.org/2000/svg">
<path d="M36.25 0.5H26.25C24.1797 0.5 22.5 2.17969 22.5 4.25V14.25C22.5 16.3203 24.1797 18 26.25 18H32.5V23C32.5 25.7578 30.2578 28 27.5 28H26.875C25.8359 28 25 28.8359 25 29.875V33.625C25 34.6641 25.8359 35.5 26.875 35.5H27.5C34.4062 35.5 40 29.9062 40 23V4.25C40 2.17969 38.3203 0.5 36.25 0.5ZM13.75 0.5H3.75C1.67969 0.5 0 2.17969 0 4.25V14.25C0 16.3203 1.67969 18 3.75 18H10V23C10 25.7578 7.75781 28 5 28H4.375C3.33594 28 2.5 28.8359 2.5 29.875V33.625C2.5 34.6641 3.33594 35.5 4.375 35.5H5C11.9062 35.5 17.5 29.9062 17.5 23V4.25C17.5 2.17969 15.8203 0.5 13.75 0.5Z" fill="black"/>
</svg>
