<svg width="36" height="30" viewBox="0 0 36 30" fill="none" xmlns="http://www.w3.org/2000/svg">
<path d="M32.2994 7.605C32.3223 7.92478 32.3223 8.24463 32.3223 8.56442C32.3223 18.3182 24.8985 29.5568 11.3299 29.5568C7.14973 29.5568 3.26651 28.3461 0 26.2446C0.59393 26.3131 1.16494 26.336 1.78172 26.336C5.2309 26.336 8.40607 25.171 10.9416 23.1837C7.69795 23.1152 4.97967 20.9908 4.04311 18.0669C4.5 18.1354 4.95682 18.1811 5.43656 18.1811C6.09898 18.1811 6.76146 18.0897 7.37817 17.9299C3.99748 17.2446 1.46187 14.2751 1.46187 10.6888V10.5974C2.44406 11.1457 3.58629 11.4883 4.79686 11.5339C2.80955 10.209 1.50757 7.94764 1.50757 5.38924C1.50757 4.01871 1.87298 2.76237 2.51262 1.66592C6.14461 6.14306 11.604 9.06687 17.7258 9.38672C17.6116 8.83849 17.543 8.26749 17.543 7.69641C17.543 3.63038 20.8324 0.318237 24.9212 0.318237C27.0456 0.318237 28.9643 1.2091 30.3121 2.64818C31.9795 2.3284 33.5785 1.71162 34.9948 0.866464C34.4465 2.5797 33.2816 4.01878 31.7512 4.93242C33.2359 4.7726 34.675 4.36135 35.9999 3.79034C34.9949 5.25221 33.7385 6.55418 32.2994 7.605Z" fill="#959595"/>
</svg>
