<svg width="29" height="30" viewBox="0 0 29 30" fill="none" xmlns="http://www.w3.org/2000/svg">
<path d="M14.5064 8.02538C10.3895 8.02538 7.06872 11.3318 7.06872 15.431C7.06872 19.5303 10.3895 22.8367 14.5064 22.8367C18.6234 22.8367 21.9442 19.5303 21.9442 15.431C21.9442 11.3318 18.6234 8.02538 14.5064 8.02538ZM14.5064 20.2457C11.846 20.2457 9.67095 18.0865 9.67095 15.431C9.67095 12.7756 11.8395 10.6164 14.5064 10.6164C17.1734 10.6164 19.3419 12.7756 19.3419 15.431C19.3419 18.0865 17.1669 20.2457 14.5064 20.2457ZM23.9832 7.72245C23.9832 8.6828 23.2064 9.44979 22.2484 9.44979C21.2839 9.44979 20.5136 8.67635 20.5136 7.72245C20.5136 6.76854 21.2904 5.9951 22.2484 5.9951C23.2064 5.9951 23.9832 6.76854 23.9832 7.72245ZM28.9094 9.47557C28.7993 7.16171 28.2685 5.1121 26.566 3.42342C24.8701 1.73475 22.8116 1.20624 20.4877 1.09022C18.0926 0.954871 10.9138 0.954871 8.51872 1.09022C6.20131 1.19979 4.14283 1.72831 2.44037 3.41698C0.737919 5.10565 0.213588 7.15526 0.0970703 9.46913C-0.0388672 11.8539 -0.0388672 19.0017 0.0970703 21.3865C0.207115 23.7004 0.737919 25.75 2.44037 27.4387C4.14283 29.1273 6.19484 29.6558 8.51872 29.7719C10.9138 29.9072 18.0926 29.9072 20.4877 29.7719C22.8116 29.6623 24.8701 29.1338 26.566 27.4387C28.262 25.75 28.7928 23.7004 28.9094 21.3865C29.0453 19.0017 29.0453 11.8603 28.9094 9.47557ZM25.8152 23.9453C25.3102 25.2086 24.3328 26.1818 23.0576 26.691C21.148 27.4451 16.6167 27.2711 14.5064 27.2711C12.3962 27.2711 7.85845 27.4387 5.95533 26.691C4.68658 26.1883 3.70912 25.215 3.19774 23.9453C2.44037 22.0439 2.61515 17.5322 2.61515 15.431C2.61515 13.3299 2.44685 8.81171 3.19774 6.91678C3.70265 5.6535 4.68011 4.68026 5.95533 4.17108C7.86493 3.41698 12.3962 3.591 14.5064 3.591C16.6167 3.591 21.1544 3.42342 23.0576 4.17108C24.3263 4.67382 25.3038 5.64706 25.8152 6.91678C26.5725 8.81815 26.3977 13.3299 26.3977 15.431C26.3977 17.5322 26.5725 22.0504 25.8152 23.9453Z" fill="#959595"/>
</svg>
