<svg width="28" height="24" viewBox="0 0 28 24" fill="none" xmlns="http://www.w3.org/2000/svg">
<path d="M13.9941 5C17.4441 5 20.2441 7.8 20.2441 11.25C20.2441 12.0625 20.0816 12.825 19.7941 13.5375L23.4441 17.1875C25.3316 15.6125 26.8191 13.575 27.7316 11.25C25.5691 5.7625 20.2316 1.875 13.9816 1.875C12.2316 1.875 10.5566 2.1875 9.00664 2.75L11.7066 5.45C12.4191 5.1625 13.1816 5 13.9941 5ZM1.49414 1.5875L4.34414 4.4375L4.91914 5.0125C2.84414 6.625 1.21914 8.775 0.244141 11.25C2.40664 16.7375 7.74414 20.625 13.9941 20.625C15.9316 20.625 17.7816 20.25 19.4691 19.575L19.9941 20.1L23.6566 23.75L25.2441 22.1625L3.08164 0L1.49414 1.5875ZM8.40664 8.5L10.3441 10.4375C10.2816 10.7 10.2441 10.975 10.2441 11.25C10.2441 13.325 11.9191 15 13.9941 15C14.2691 15 14.5441 14.9625 14.8066 14.9L16.7441 16.8375C15.9066 17.25 14.9816 17.5 13.9941 17.5C10.5441 17.5 7.74414 14.7 7.74414 11.25C7.74414 10.2625 7.99414 9.3375 8.40664 8.5ZM13.7941 7.525L17.7316 11.4625L17.7566 11.2625C17.7566 9.1875 16.0816 7.5125 14.0066 7.5125L13.7941 7.525Z" fill="white"/>
</svg>
