<svg width="30" height="20" viewBox="0 0 30 20" fill="none" xmlns="http://www.w3.org/2000/svg">
<path d="M15.0007 0C8.33398 0 2.64065 4.14667 0.333984 10C2.64065 15.8533 8.33398 20 15.0007 20C21.6673 20 27.3606 15.8533 29.6673 10C27.3606 4.14667 21.6673 0 15.0007 0ZM15.0007 16.6667C11.3207 16.6667 8.33398 13.68 8.33398 10C8.33398 6.32 11.3207 3.33333 15.0007 3.33333C18.6807 3.33333 21.6673 6.32 21.6673 10C21.6673 13.68 18.6807 16.6667 15.0007 16.6667ZM15.0007 6C12.7873 6 11.0007 7.78667 11.0007 10C11.0007 12.2133 12.7873 14 15.0007 14C17.214 14 19.0007 12.2133 19.0007 10C19.0007 7.78667 17.214 6 15.0007 6Z" fill="black"/>
</svg>
